<svg id="Layer_1" data-name="Layer 1" xmlns="http://www.w3.org/2000/svg" viewBox="0 0 2000 2000"><path d="M1264.13,950.59H1410a85,85,0,0,0,85-85V865H1325.92l119.56-119.56-.42-.41a85,85,0,0,0-120.21,0l-103.4,103.4c-10.55,10.55-22.89,15.83-35.2,15.83s-24.74-5.35-35.2-16c-19-19.43-18.44-50.7.78-69.92L1255,675.15a85,85,0,0,0,0-120.21l-.41-.42L1135,674.08V505h-.59a85,85,0,0,0-85,85V736.23c0,29.69-19.77,49.63-49.2,49.63h-.73c-27.18-.31-48.89-22.81-48.89-50V590a85,85,0,0,0-85-85H865V674.08L745.44,554.52l-.41.42a85,85,0,0,0,0,120.21L848.17,778.29c19.22,19.22,19.78,50.49.78,69.92-10.46,10.7-22.82,16-35.2,16s-24.65-5.28-35.2-15.83L675.15,745a85,85,0,0,0-120.21,0l-.42.41L674.08,865H505v.59a85,85,0,0,0,85,85H735.87c27.18,0,49.68,21.71,50,48.89.34,29.83-19.69,49.93-49.63,49.93H590a85,85,0,0,0-85,85v.59H674.08L554.52,1254.56l.42.41a85,85,0,0,0,120.21,0l103.14-103.14a50.21,50.21,0,0,1,35.55-14.73,49,49,0,0,1,34.37,14c21.33,20.86,21.38,49.24.22,70.4L745,1324.85a85,85,0,0,0,0,120.21l.41.42L905.3,1285.62c27.34-27.34,41.88-59.85,42.05-94,.17-34.71-14.58-67.9-42.66-96-16-16-33.57-27.58-51.76-34.68,8-18,12.07-38.43,12.07-60.72,0-22.66-4.23-43.24-12.08-61.12,18.35-7.08,35.71-18.64,51.47-34.4,16-16,27.59-33.57,34.69-51.77C957,860.77,977.55,865,1000.21,865c22.29,0,42.74-4.11,60.72-12.07,7.09,18.2,18.66,35.74,34.68,51.76,15.76,15.76,33.12,27.32,51.47,34.4-7.85,17.88-12.08,38.46-12.08,61.12,0,22.29,4.11,42.74,12.07,60.72-18.19,7.09-35.73,18.65-51.76,34.68-28.08,28.08-42.83,61.27-42.66,96,.17,34.18,14.71,66.69,42,94l159.86,159.86.41-.42a85,85,0,0,0,0-120.21l-103.4-103.4c-21.16-21.16-21.11-49.54.22-70.4a49,49,0,0,1,34.37-14,50.21,50.21,0,0,1,35.55,14.73L1324.85,1255a85,85,0,0,0,120.21,0l.42-.41L1325.92,1135H1495v-.59a85,85,0,0,0-85-85H1263.77c-29.94,0-50-20.1-49.63-49.93C1214.45,972.3,1237,950.59,1264.13,950.59Zm-363,148.56c27.11,27.11,41.35,59.07,41.19,92.41-.17,32.84-14.2,64.14-40.58,90.52L745.53,1438.32a80,80,0,0,1,3-109.93L852,1225c11.4-11.39,17.37-24.88,17.3-39s-6.15-27.36-17.55-38.5a53.83,53.83,0,0,0-37.87-15.38,54.91,54.91,0,0,0-39.08,16.19L671.61,1251.44a80,80,0,0,1-109.93,3L681.15,1135h49.93c38.65,0,71.93-12.71,96.22-36.76a121,121,0,0,0,23.52-32.81C868.69,1072.33,885.68,1083.67,901.16,1099.15Zm-215,30.85,31.77-31.77c26.67-26.67,58.08-40.76,90.85-40.76a115.39,115.39,0,0,1,37.32,6.24,115.82,115.82,0,0,1-22.31,31c-23.34,23.1-55.39,35.31-92.7,35.31ZM860,1000.21c0,21.7-4,41.57-11.78,59a120.44,120.44,0,0,0-39.45-6.73c-33.16,0-66.23,14.07-94.39,42.23l-35.3,35.3h-169A80.11,80.11,0,0,1,590,1054.41H736.23c16.11,0,29.88-5.31,39.81-15.35s15-23.69,14.82-39.64c-.34-29.68-25-53.83-55-53.83H590A80.11,80.11,0,0,1,510.12,870h169l35.3,35.3c27.34,27.34,59.85,41.88,94,42.05H809a121,121,0,0,0,39.23-6.57C856,958.3,860,978.33,860,1000.21ZM686.15,870h44.93c37.94,0,70.25,12.38,93.44,35.8a115.33,115.33,0,0,1,21.6,30.42,116,116,0,0,1-37.1,6.13h-.58c-32.84-.17-64.14-14.2-90.52-40.58Zm214.7,31.16c-15.33,15.33-32.22,26.55-50,33.37-21-43.23-64-69.53-119.73-69.53H681.15L561.68,745.53a80,80,0,0,1,109.93,3L775,852c11.32,11.32,24.71,17.3,38.74,17.3s27.55-6.07,38.77-17.55c20.76-21.23,20.39-55.75-.81-77L748.56,671.61a80.11,80.11,0,0,1-3-109.93L865,681.15v49.93c0,55.73,26.31,98.74,69.57,119.75C927.66,868.69,916.33,885.68,900.85,901.16ZM870,686.15l31.77,31.77c26.82,26.83,40.92,58.43,40.76,91.39a115.58,115.58,0,0,1-6.26,36.84,115.69,115.69,0,0,1-30.47-21.63C882.38,801.33,870,769,870,731.08ZM1000.21,860c-21.88,0-41.9-4-59.42-11.75,15.72-45.44,3.92-94.45-35.49-133.87L870,679.08v-169A80.11,80.11,0,0,1,945.59,590V735.87c0,30,24.15,54.65,53.83,55h.79c15.81,0,29.35-5.24,39.19-15.16s15-23.56,15-39.47V590A80.11,80.11,0,0,1,1130,510.12v169l-35.3,35.3c-39.4,39.41-51.21,88.41-35.5,133.84C1041.78,856,1021.91,860,1000.21,860ZM1130,686.15v44.93c0,37.31-12.21,69.37-35.31,92.7a115.82,115.82,0,0,1-31,22.31,115.48,115.48,0,0,1-6.24-36.78c-.16-33,13.94-64.56,40.76-91.39Zm-30.85,215c-15.48-15.48-26.81-32.47-33.72-50.34a120.88,120.88,0,0,0,32.81-23.52c24-24.29,36.76-57.57,36.76-96.22V681.15l119.47-119.47a80,80,0,0,1-3,109.93L1148.29,774.76c-21.2,21.2-21.57,55.72-.81,77,11.22,11.48,24.63,17.55,38.77,17.55s27.42-6,38.74-17.3l103.4-103.4a80,80,0,0,1,109.93-3L1318.85,865h-49.93c-55.72,0-98.71,26.3-119.73,69.53C1131.37,927.71,1114.48,916.49,1099.15,901.16ZM1313.85,870l-31.77,31.77c-26.38,26.38-57.68,40.41-90.52,40.58H1191a116,116,0,0,1-37.1-6.13,115.33,115.33,0,0,1,21.6-30.42c23.19-23.42,55.5-35.8,93.44-35.8Zm124.47,384.47a80,80,0,0,1-109.93-3l-103.15-103.15a54.91,54.91,0,0,0-39.08-16.19,53.83,53.83,0,0,0-37.87,15.38c-11.4,11.14-17.47,24.46-17.55,38.5s5.9,27.62,17.3,39l103.4,103.4a80,80,0,0,1,3,109.93l-156.24-156.24c-26.38-26.38-40.41-57.68-40.58-90.52-.16-33.34,14.08-65.3,41.19-92.41,15.48-15.48,32.47-26.82,50.34-33.73a120.93,120.93,0,0,0,23.52,32.82c24.29,24,57.57,36.76,96.22,36.76h49.93ZM1209.14,999.42c-.18,16,4.95,29.65,14.82,39.64s23.7,15.35,39.81,15.35H1410a80.11,80.11,0,0,1,79.88,75.59h-169l-35.3-35.3c-28.16-28.16-61.23-42.23-94.39-42.23h0v5c32.77,0,64.19,14.1,90.85,40.76l31.77,31.77h-44.93c-37.31,0-69.36-12.21-92.7-35.31a115.82,115.82,0,0,1-22.31-31,115.33,115.33,0,0,1,37.31-6.24v-5a120.38,120.38,0,0,0-39.44,6.73c-7.77-17.42-11.78-37.29-11.78-59,0-21.88,4-41.91,11.75-59.43a121,121,0,0,0,39.23,6.57h.61c34.18-.17,66.69-14.71,94-42.05l35.3-35.3h169A80.11,80.11,0,0,1,1410,945.59H1264.13C1234.14,945.59,1209.48,969.74,1209.14,999.42Z"/><path d="M1000,957.5a42.5,42.5,0,1,0,42.5,42.5A42.5,42.5,0,0,0,1000,957.5Zm0,80a37.5,37.5,0,1,1,37.5-37.5A37.54,37.54,0,0,1,1000,1037.5Z"/><path d="M1002.65,1135h-5.3a50,50,0,0,0-50,50v260a50,50,0,0,0,50,50h5.3a50,50,0,0,0,50-50V1185A50,50,0,0,0,1002.65,1135Zm45,310a45,45,0,0,1-45,45h-5.3a45,45,0,0,1-45-45V1185a45,45,0,0,1,45-45h5.3a45,45,0,0,1,45,45Z"/></svg>