<svg id="Layer_1" data-name="Layer 1" xmlns="http://www.w3.org/2000/svg" viewBox="0 0 32 32"><defs><style>.cls-1{fill:#ead681;}</style></defs><title>Artboard 6 copy 2</title><path class="cls-1" d="M22.43,16.74a1.41,1.41,0,0,0,1.5,1.49h4.4a2.56,2.56,0,0,1,2.56,2.56H25.8l3.6,3.61h0a2.55,2.55,0,0,1-3.61,0l-3.1-3.1a1.51,1.51,0,0,0-1.07-.44,1.47,1.47,0,0,0-1,.41,1.41,1.41,0,0,0,0,2.12l3.11,3.11a2.57,2.57,0,0,1,0,3.61h0l-4.82-4.8a4,4,0,0,1-1.26-2.83,4,4,0,0,1,1.29-2.88,4.2,4.2,0,0,1,1.55-1,4.6,4.6,0,0,1-.36-1.83,4.52,4.52,0,0,1,.36-1.85,4.42,4.42,0,0,1-1.55-1,4.63,4.63,0,0,1-1-1.56,4.34,4.34,0,0,1-1.83.37,4.54,4.54,0,0,1-1.84-.37,4.49,4.49,0,0,1-1,1.56,4.39,4.39,0,0,1-1.54,1,4.69,4.69,0,0,1,.35,1.85,4.77,4.77,0,0,1-.35,1.83,4.45,4.45,0,0,1,1.55,1,3.83,3.83,0,0,1,0,5.71l-4.8,4.8h0a2.53,2.53,0,0,1,0-3.61l3.11-3.11a1.4,1.4,0,0,0,0-2.12,1.45,1.45,0,0,0-1-.41,1.49,1.49,0,0,0-1.07.44l-3.11,3.1a2.52,2.52,0,0,1-1.8.75,2.58,2.58,0,0,1-1.82-.75h0L6.2,20.8H1.11a2.56,2.56,0,0,1,2.55-2.56h4.4a1.39,1.39,0,0,0,1.49-1.49,1.49,1.49,0,0,0-1.5-1.48H3.66A2.56,2.56,0,0,1,1.11,12.7H6.2L2.59,9.09h0a2.54,2.54,0,0,1,1.82-.75,2.48,2.48,0,0,1,1.8.75l3.11,3.11a1.5,1.5,0,0,0,1.07.48,1.45,1.45,0,0,0,1-.49,1.49,1.49,0,0,0,0-2.1L8.33,7a2.54,2.54,0,0,1,0-3.62h0l3.59,3.59V1.86h0A2.55,2.55,0,0,1,14.5,4.42V8.81A1.5,1.5,0,0,0,16,10.3h0a1.41,1.41,0,0,0,1.48-1.48V4.42A2.55,2.55,0,0,1,20,1.86h0V6.94l3.6-3.59h0a2.58,2.58,0,0,1,0,3.62l-3.11,3.1a1.5,1.5,0,0,0,0,2.1,1.48,1.48,0,0,0,1.07.49,1.46,1.46,0,0,0,1-.48l3.12-3.11a2.55,2.55,0,0,1,3.61,0h0l-3.6,3.6h5.09a2.56,2.56,0,0,1-2.56,2.56H23.94A1.51,1.51,0,0,0,22.43,16.74Z"/><path class="cls-1" d="M16,15a1,1,0,1,0,1,1A1,1,0,0,0,16,15Z"/><path class="cls-1" d="M16.07,19.31h-.14a1.23,1.23,0,0,0-1.22,1.23v6.38a1.23,1.23,0,0,0,1.22,1.23h.14a1.23,1.23,0,0,0,1.22-1.23V20.54A1.23,1.23,0,0,0,16.07,19.31Z"/></svg>